/* XPM */
static char * ac_on_xpm[] = {
"20 20 2 1",
" 	c None",
".	c #A6A6A6",
"                    ",
"      ..     ..     ",
"      ..     ..     ",
"      ..     ..     ",
"      ..     ..     ",
"      ..     ..     ",
"    .............   ",
"    .............   ",
"    ..         ..   ",
"    ..         ..   ",
"    ..         ..   ",
"     ..       ..    ",
"     ...     ...    ",
"      .........     ",
"        .....       ",
"         ...        ",
"         ...        ",
"         ...        ",
"         ...        ",
"                    "};
