/* XPM */
static char * battery_low_xpm[] = {
"20 20 3 1",
" 	c None",
".	c #A6A6A6",
"+	c #CC241D",
"                    ",
"        ......      ",
"        ......      ",
"     ............   ",
"     ............   ",
"     ..        ..   ",
"     ..        ..   ",
"     ..        ..   ",
"     ..        ..   ",
"     ..        ..   ",
"     ..        ..   ",
"     ..        ..   ",
"     ..        ..   ",
"     ..        ..   ",
"     ..++++++++..   ",
"     ..++++++++..   ",
"     ..++++++++..   ",
"     ............   ",
"     ............   ",
"                    "};
